<?xml version="1.0" standalone="no"?>
<!DOCTYPE svg PUBLIC "-//W3C//DTD SVG 20010904//EN"
 "http://www.w3.org/TR/2001/REC-SVG-20010904/DTD/svg10.dtd">
<svg version="1.0" xmlns="http://www.w3.org/2000/svg"
 width="1563.000000pt" height="1563.000000pt" viewBox="0 0 1563.000000 1563.000000"
 preserveAspectRatio="xMidYMid meet">
<metadata>
Created by potrace 1.14, written by Peter Selinger 2001-2017
</metadata>
<g transform="translate(0.000000,1563.000000) scale(0.100000,-0.100000)"
fill="#000000" stroke="none">
<path d="M0 7815 l0 -7815 7815 0 7815 0 0 7815 0 7815 -7815 0 -7815 0 0
-7815z m8015 5810 c133 -25 237 -62 320 -114 56 -34 207 -121 212 -121 2 0 39
-22 83 -50 44 -27 82 -50 84 -50 2 0 61 -34 131 -75 69 -41 128 -75 131 -75 2
0 33 -17 67 -38 122 -76 326 -192 337 -192 5 0 10 -4 10 -10 0 -5 5 -10 10
-10 6 0 39 -18 74 -40 35 -22 68 -40 75 -40 6 0 11 -4 11 -10 0 -5 4 -10 9
-10 4 0 48 -23 97 -52 49 -28 102 -58 118 -67 17 -9 35 -20 40 -24 30 -21 146
-87 155 -87 6 0 11 -4 11 -9 0 -5 8 -11 18 -15 9 -3 26 -11 36 -18 44 -29 128
-80 168 -102 96 -52 113 -61 125 -72 6 -7 9 -15 5 -19 -4 -5 1 -5 10 -2 10 3
24 -1 33 -9 8 -9 15 -12 15 -7 0 10 20 -19 20 -29 0 -4 -8 -4 -17 -1 -15 6
-16 5 -3 -9 12 -13 17 -13 28 -1 7 7 15 13 18 13 9 0 3 -20 -12 -34 -8 -9 -14
-24 -13 -33 3 -19 -27 -73 -48 -86 -8 -5 -13 -28 -13 -55 -1 -38 -6 -53 -32
-81 -26 -29 -33 -32 -49 -23 -10 7 -25 9 -34 6 -8 -3 -15 -1 -15 5 0 6 -11 11
-25 11 -14 0 -33 4 -43 10 -22 12 -134 28 -290 42 -89 8 -153 8 -230 0 -134
-14 -276 -41 -327 -61 -11 -5 -38 -14 -60 -21 -22 -7 -68 -25 -103 -41 -35
-16 -65 -29 -67 -29 -14 0 -192 -113 -264 -168 -54 -41 -422 -401 -983 -961
l-898 -896 0 1720 0 1720 53 32 c28 17 69 40 90 52 21 12 95 54 165 95 141 81
215 111 342 136 110 23 318 25 425 5z m-1731 -830 c-2 -33 -3 -436 -4 -895 -1
-459 -4 -829 -7 -822 -2 6 -14 12 -24 12 -11 0 -17 -4 -14 -10 3 -5 1 -10 -4
-10 -6 0 -11 -5 -11 -10 0 -6 3 -9 8 -9 4 1 15 1 26 0 15 -1 16 -4 6 -16 -7
-8 -20 -15 -29 -15 -13 0 -13 -2 -2 -9 11 -7 9 -14 -12 -35 -14 -14 -33 -26
-42 -26 -10 0 -15 -9 -15 -29 0 -17 -5 -29 -12 -28 -31 1 -48 -4 -48 -13 0 -6
13 -8 30 -5 34 6 43 -14 10 -22 -11 -3 -20 -12 -20 -19 0 -8 -4 -14 -10 -14
-5 0 -10 -9 -10 -21 0 -30 -24 -49 -60 -49 -32 0 -32 0 -25 -42 7 -39 6 -41
-10 -25 -18 19 -25 20 -40 9 -20 -14 -17 -42 5 -42 11 0 20 -7 20 -15 0 -8 -9
-15 -21 -15 -16 0 -19 -4 -14 -21 5 -14 0 -26 -14 -38 -27 -23 -27 -51 -1 -51
11 0 20 -4 20 -10 0 -14 -37 -12 -44 3 -5 10 -7 10 -12 0 -3 -7 -16 -13 -29
-13 -32 0 -55 -40 -55 -95 0 -42 -13 -61 -22 -33 -3 9 -13 9 -36 2 -25 -7 -30
-12 -21 -24 8 -11 12 -12 16 -2 11 27 21 10 16 -25 -7 -49 -8 -49 -34 -24 -13
12 -26 21 -31 21 -12 0 -10 -34 3 -47 13 -13 -8 -113 -23 -113 -4 0 -8 5 -8
11 0 6 -14 9 -32 7 -25 -2 -36 -10 -47 -33 -7 -16 -20 -43 -27 -58 -8 -16 -14
-44 -14 -63 0 -21 -8 -43 -20 -56 -17 -19 -20 -19 -20 -5 0 9 -4 17 -10 17 -5
0 -10 -5 -10 -11 0 -6 -7 -9 -15 -6 -8 4 -17 1 -21 -5 -4 -6 -3 -8 4 -4 6 3
13 -6 17 -25 8 -37 -2 -51 -20 -26 -7 10 -19 15 -29 11 -21 -8 -20 -19 5 -43
22 -20 19 -41 -7 -41 -8 0 -14 -10 -14 -25 0 -18 -5 -25 -20 -25 -11 0 -20 -4
-20 -10 0 -5 -9 -10 -20 -10 -11 0 -23 -8 -26 -17 -3 -10 -12 -30 -20 -45 -8
-14 -14 -51 -14 -82 l0 -56 -50 0 c-29 0 -50 -5 -50 -11 0 -5 -4 -8 -9 -5 -4
3 -6 -5 -4 -17 3 -14 -2 -29 -11 -36 -9 -8 -16 -24 -16 -38 0 -13 -7 -31 -15
-39 -9 -10 -15 -11 -15 -4 0 25 -29 -19 -35 -54 -7 -35 -29 -49 -37 -24 -3 9
-10 7 -24 -6 -13 -14 -15 -21 -6 -24 14 -4 16 -32 2 -32 -5 0 -10 -7 -10 -15
0 -8 -9 -15 -21 -15 -11 0 -17 -4 -14 -10 3 -5 0 -10 -8 -10 -7 0 -19 -11 -25
-24 -10 -22 -8 -25 10 -28 36 -5 34 -28 -2 -28 -31 0 -60 -19 -60 -39 0 -6 -5
-11 -11 -11 -5 0 -7 -4 -4 -10 3 -5 -1 -10 -9 -10 -21 0 -20 -20 0 -34 14 -11
14 -13 1 -25 -13 -10 -16 -9 -22 9 -6 17 -8 18 -21 6 -8 -8 -14 -26 -14 -40 0
-18 -5 -26 -17 -26 -20 0 -50 -53 -33 -58 19 -7 11 -42 -10 -42 -11 0 -20 -4
-20 -10 0 -5 -9 -10 -19 -10 -13 0 -24 -11 -32 -35 -7 -19 -17 -35 -21 -35 -4
0 -8 -5 -8 -12 0 -9 3 -9 12 0 19 19 35 14 40 -13 4 -20 1 -26 -17 -31 -13 -3
-33 -4 -46 -2 -21 3 -24 -1 -21 -27 2 -16 4 -39 5 -50 1 -11 -5 -21 -15 -23
-10 -2 -18 2 -18 10 0 8 -9 14 -20 15 -16 1 -20 -4 -20 -28 0 -19 -5 -29 -15
-29 -8 0 -15 -4 -15 -10 0 -5 -7 -10 -15 -10 -20 0 -20 -49 0 -56 18 -7 20
-35 3 -52 -7 -7 -27 -12 -45 -12 -18 0 -33 -5 -33 -11 0 -5 -4 -8 -9 -5 -4 3
-6 -6 -3 -19 2 -15 9 -22 16 -18 17 11 36 12 36 2 0 -5 -7 -9 -16 -9 -11 0
-15 -7 -12 -22 2 -13 -4 -30 -14 -40 -15 -15 -18 -15 -18 -3 0 8 -4 15 -10 15
-12 0 -13 -23 -1 -35 5 -6 11 -26 15 -46 5 -29 3 -38 -10 -43 -14 -5 -15 -4
-5 8 15 17 5 39 -12 30 -9 -5 -9 -4 0 6 9 10 8 18 -7 37 -19 25 -17 53 4 53 6
0 4 5 -4 10 -13 8 -15 187 -15 1517 1 1644 -2 1566 61 1710 8 17 14 38 14 47
0 9 3 16 8 16 4 0 16 19 26 43 60 141 249 353 376 423 19 10 37 21 40 24 3 3
21 13 40 24 99 53 147 80 170 96 14 9 32 20 40 23 8 4 33 18 55 32 22 14 51
31 65 38 14 6 27 14 30 17 3 3 14 10 25 16 86 47 146 81 177 101 21 12 42 23
48 23 5 0 10 4 10 8 0 4 12 13 28 19 15 7 45 23 67 37 22 14 47 29 55 33 8 3
17 9 20 12 3 3 23 15 45 26 22 11 67 36 101 57 34 21 66 38 73 38 6 0 11 5 11
10 0 6 5 10 10 10 6 0 29 12 52 26 41 26 63 39 188 107 l65 36 6 -27 c3 -15 4
-54 3 -87z m4172 -573 c-10 -11 -16 -12 -16 -4 0 7 5 12 10 12 6 0 10 8 11 18
0 11 2 13 6 4 3 -8 -2 -21 -11 -30z m-4179 -1284 c-3 -7 -5 -2 -5 12 0 14 2
19 5 13 2 -7 2 -19 0 -25z m-77 -135 c0 -5 -5 -15 -10 -23 -8 -12 -10 -11 -10
8 0 12 5 22 10 22 6 0 10 -3 10 -7z m-183 -255 c-3 -8 -6 -5 -6 6 -1 11 2 17
5 13 3 -3 4 -12 1 -19z m-237 -328 c0 -5 -4 -10 -10 -10 -5 0 -10 5 -10 10 0
6 5 10 10 10 6 0 10 -4 10 -10z m-120 -240 c0 -5 -4 -10 -10 -10 -5 0 -10 5
-10 10 0 6 5 10 10 10 6 0 10 -4 10 -10z m-100 -80 c0 -5 -4 -10 -10 -10 -5 0
-10 5 -10 10 0 6 5 10 10 10 6 0 10 -4 10 -10z m-800 -1120 c0 -5 -4 -10 -10
-10 -5 0 -10 5 -10 10 0 6 5 10 10 10 6 0 10 -4 10 -10z m-67 -147 c-7 -2 -19
-2 -25 0 -7 3 -2 5 12 5 14 0 19 -2 13 -5z m-113 -212 c0 -5 -7 -12 -16 -15
-14 -5 -15 -4 -4 9 14 17 20 19 20 6z m-90 -405 c0 -3 -4 -8 -10 -11 -5 -3
-10 -1 -10 4 0 6 5 11 10 11 6 0 10 -2 10 -4z m4970 -104 c0 -12 -3 -12 -15
-2 -8 7 -15 13 -15 15 0 1 7 2 15 2 8 0 15 -7 15 -15z m15 -32 c3 -5 1 -10 -4
-10 -6 0 -11 5 -11 10 0 6 2 10 4 10 3 0 8 -4 11 -10z m80 0 c3 -5 -1 -10 -9
-10 -8 0 -18 5 -21 10 -3 6 1 10 9 10 8 0 18 -4 21 -10z m-84 -45 c5 4 9 1 9
-5 0 -17 -25 -6 -26 11 -1 9 1 10 3 1 3 -7 9 -10 14 -7z m4 -64 c-6 -5 -25 10
-25 20 0 5 6 4 14 -3 8 -7 12 -15 11 -17z m82 -46 c32 -32 53 -45 74 -45 16 0
29 -5 29 -10 0 -6 15 -8 40 -4 32 5 40 4 40 -9 0 -10 6 -13 20 -10 11 3 27 0
35 -7 8 -7 35 -13 59 -14 56 -1 65 -11 36 -36 -21 -18 -22 -20 -4 -22 10 0 26
-1 34 0 7 0 22 -8 31 -19 19 -22 40 -24 57 -7 9 9 21 7 52 -8 22 -10 40 -22
40 -26 0 -3 17 -5 37 -3 32 2 42 -3 70 -34 18 -20 33 -40 33 -44 0 -21 40 17
40 38 0 21 5 25 30 25 26 0 30 -4 30 -26 0 -14 -4 -23 -10 -19 -5 3 -10 0 -10
-8 0 -9 12 -14 35 -14 19 0 35 4 35 9 0 4 5 8 12 8 9 0 9 -3 0 -12 -7 -7 -12
-20 -12 -30 0 -22 -13 -23 -30 -4 -6 8 -18 12 -25 10 -7 -3 -19 4 -25 16 -15
29 -32 15 -18 -16 8 -17 17 -23 30 -18 10 3 26 0 34 -7 12 -9 20 -9 39 1 13 7
22 16 20 21 -3 4 -2 15 1 24 5 13 9 14 15 4 4 -8 12 -10 16 -5 4 4 0 14 -10
21 -12 8 -14 15 -8 20 6 3 11 1 11 -6 0 -8 5 -7 18 2 15 13 16 12 4 -2 -10
-14 -10 -18 3 -22 12 -5 10 -12 -12 -34 -15 -15 -39 -36 -53 -45 -15 -11 -19
-18 -10 -18 11 0 11 -3 2 -12 -10 -10 -15 -10 -22 2 -9 13 -14 7 -11 -12 0 -4
-10 -10 -24 -14 -14 -3 -22 -10 -19 -15 3 -5 -4 -9 -15 -9 -12 0 -21 -4 -21
-8 0 -5 -18 -16 -40 -26 -22 -10 -40 -22 -40 -27 0 -5 -7 -9 -15 -9 -8 0 -15
-4 -15 -10 0 -5 -6 -10 -14 -10 -8 0 -21 -6 -28 -13 -7 -6 -39 -25 -70 -41
-32 -15 -58 -32 -58 -37 0 -5 -9 -9 -19 -9 -11 0 -26 -6 -33 -13 -13 -13 -58
-41 -138 -83 -19 -11 -36 -22 -38 -26 -2 -5 -10 -8 -18 -8 -8 0 -14 -4 -14 -8
0 -4 -15 -15 -32 -23 -56 -26 -103 -54 -106 -61 -2 -5 -10 -8 -17 -8 -7 0 -15
-3 -17 -7 -1 -5 -19 -16 -38 -25 -53 -26 -124 -69 -130 -78 -3 -5 -18 -12 -33
-15 -15 -4 -27 -11 -27 -16 0 -5 -5 -9 -10 -9 -6 0 -46 -22 -90 -50 -44 -27
-84 -50 -90 -50 -5 0 -10 -4 -10 -10 0 -5 -5 -10 -10 -10 -6 0 -46 -20 -90
-45 -44 -25 -82 -45 -85 -45 -3 0 14 19 37 43 96 97 188 208 188 226 0 6 4 11
8 11 4 0 16 15 27 33 10 17 21 34 24 37 18 15 91 162 91 182 0 10 4 18 8 18
10 0 42 87 42 113 0 9 4 17 9 17 5 0 11 12 14 28 3 15 11 45 17 67 6 22 11 53
11 69 -1 15 3 34 9 41 6 7 13 37 15 67 2 29 8 78 12 108 5 30 8 84 6 119 -3
61 7 91 29 91 5 0 29 -20 55 -45z m111 33 c17 -17 15 -45 -4 -52 -27 -10 -44
-7 -44 9 0 8 -4 15 -10 15 -5 0 -10 9 -10 20 0 15 7 20 28 20 15 0 33 -5 40
-12z m112 -8 c0 -11 -4 -20 -10 -20 -5 0 -10 9 -10 20 0 11 5 20 10 20 6 0 10
-9 10 -20z m140 -10 c0 -5 -4 -10 -10 -10 -5 0 -10 5 -10 10 0 6 5 10 10 10 6
0 10 -4 10 -10z m657 -216 c-3 -3 -12 -4 -19 -1 -8 3 -5 6 6 6 11 1 17 -2 13
-5z m101 -29 c-3 -3 -9 2 -12 12 -6 14 -5 15 5 6 7 -7 10 -15 7 -18z m-128
-10 c-14 -17 -30 -20 -30 -6 0 5 8 12 18 14 9 3 19 5 21 6 2 0 -2 -6 -9 -14z
m50 5 c0 -5 -2 -10 -4 -10 -3 0 -8 5 -11 10 -3 6 -1 10 4 10 6 0 11 -4 11 -10z
m-12 -38 c2 -7 -2 -10 -12 -6 -9 3 -16 11 -16 16 0 13 23 5 28 -10z m-68 -35
c0 -11 -39 -37 -55 -37 -14 0 -2 18 23 32 33 21 32 21 32 5z m-7621 -2351 l26
-26 3 -303 c1 -166 5 -309 8 -316 3 -10 119 99 350 330 l344 344 49 0 c56 0
86 -21 96 -66 15 -68 5 -82 -277 -366 l-270 -272 18 -24 c18 -24 269 -364 402
-546 106 -144 122 -171 122 -214 0 -31 -7 -46 -34 -73 -39 -39 -81 -45 -124
-18 -15 9 -90 102 -168 208 -324 440 -367 496 -378 496 -7 0 -41 -29 -74 -64
l-62 -64 0 -262 0 -262 -34 -34 c-27 -27 -42 -34 -74 -34 -51 0 -97 37 -112
88 -8 25 -10 260 -8 734 3 689 3 697 24 725 11 15 32 34 45 41 36 19 97 8 128
-22z m2621 19 c57 -29 60 -48 60 -340 0 -146 3 -265 6 -265 3 0 26 18 52 39
133 111 325 143 495 83 258 -90 410 -393 338 -675 -34 -133 -90 -226 -180
-301 -110 -92 -218 -130 -371 -129 -118 0 -167 11 -260 56 -84 41 -196 150
-237 232 -64 126 -63 116 -63 707 0 367 3 546 11 559 12 23 62 48 97 49 13 0
36 -7 52 -15z m3137 5 c370 -50 617 -306 664 -688 35 -292 -78 -583 -288 -740
-175 -132 -298 -162 -655 -162 -254 0 -277 4 -306 51 -18 28 -17 1470 0 1500
26 42 60 48 290 49 119 0 252 -5 295 -10z m3070 -10 c21 -13 35 -31 42 -57 7
-25 11 -243 11 -621 0 -626 0 -630 51 -666 14 -9 44 -16 74 -16 69 -1 115 -42
115 -106 0 -64 -66 -114 -149 -114 -112 0 -221 70 -270 174 -47 102 -51 156
-51 762 0 538 1 567 19 603 32 61 97 78 158 41z m-515 -48 c94 -88 31 -242
-99 -242 -55 0 -101 32 -125 87 -17 40 -19 51 -9 84 33 110 154 146 233 71z
m-7087 -424 c52 -41 55 -62 55 -380 0 -207 4 -305 13 -333 29 -91 65 -132 154
-171 71 -32 206 -34 272 -4 66 30 117 75 140 125 20 43 21 60 21 363 0 204 4
330 11 350 12 36 64 72 103 72 39 0 83 -26 101 -60 22 -43 23 -966 1 -1009
-43 -83 -167 -80 -202 5 -15 37 -25 42 -43 20 -6 -7 -42 -27 -80 -45 -195 -90
-433 -56 -571 82 -59 59 -90 110 -121 197 -22 62 -23 82 -27 388 -4 355 -2
370 52 403 41 25 87 24 121 -3z m3315 2 c182 -54 300 -197 337 -407 19 -114
13 -160 -27 -195 l-30 -28 -395 0 -395 0 6 -27 c14 -61 45 -111 98 -161 63
-60 118 -87 211 -103 91 -16 196 9 285 68 23 15 50 23 78 23 76 0 126 -76 92
-140 -15 -29 -117 -86 -205 -115 -69 -24 -96 -27 -200 -27 -106 0 -129 3 -195
27 -240 87 -380 286 -380 540 0 255 143 463 372 539 98 33 249 35 348 6z
m2836 6 c191 -51 345 -203 401 -400 17 -56 31 -529 19 -611 -10 -65 -53 -105
-113 -105 -38 0 -50 5 -79 34 -28 28 -34 42 -34 76 l0 42 -42 -34 c-125 -101
-262 -140 -418 -118 -145 20 -291 117 -364 243 -116 197 -110 464 12 644 75
110 190 193 317 228 65 17 236 18 301 1z m911 -11 c13 -9 28 -28 34 -42 6 -16
8 -212 7 -515 l-3 -490 -33 -29 c-53 -47 -150 -32 -172 27 -14 36 -13 989 1
1015 29 55 109 71 166 34z m1013 3 c26 -19 66 -91 218 -392 l185 -369 21 44
c12 24 32 69 45 99 13 30 36 82 51 115 15 33 49 110 75 170 26 61 60 137 75
170 15 33 37 81 49 107 21 46 60 78 96 78 26 0 93 -38 105 -59 22 -42 17 -58
-105 -326 -12 -27 -48 -108 -79 -180 -61 -138 -67 -153 -114 -255 -16 -36 -64
-144 -107 -240 -42 -96 -90 -203 -106 -238 -16 -35 -29 -65 -29 -67 0 -2 -18
-43 -40 -90 -22 -47 -40 -90 -40 -94 0 -5 -12 -20 -26 -35 -39 -38 -102 -37
-146 3 -44 40 -42 81 11 194 22 49 41 90 41 92 0 2 17 41 38 87 21 46 44 99
52 118 7 19 17 39 22 45 14 16 9 42 -21 97 -15 29 -59 112 -96 183 -37 72 -82
157 -100 190 -18 33 -63 119 -100 190 -37 72 -80 153 -95 180 -38 70 -45 107
-25 145 16 30 62 59 96 60 9 0 31 -10 49 -22z m-6233 -1647 c-3 -16 -9 -99
-13 -185 l-7 -157 54 36 c86 56 163 45 231 -35 44 -50 63 -120 54 -192 -10
-71 -28 -109 -76 -162 -60 -65 -112 -86 -212 -86 -46 0 -93 3 -105 6 l-23 6 0
342 c0 187 -3 351 -6 364 -5 15 -17 25 -36 29 -48 10 -31 36 32 49 30 7 68 12
84 13 26 1 28 -1 23 -28z m4281 -82 c12 -5 22 -13 22 -19 0 -12 -50 -90 -57
-90 -3 0 -18 11 -35 25 -36 31 -68 39 -113 31 -63 -12 -84 -81 -46 -154 35
-66 308 -313 323 -290 14 22 9 137 -7 168 -15 29 -50 42 -104 37 -16 -1 -26 5
-32 20 -7 20 -4 24 29 32 54 14 325 30 337 19 6 -6 4 -18 -5 -36 -15 -26 -20
-27 -103 -30 -48 -1 -87 -5 -87 -8 0 -3 10 -18 21 -34 18 -23 21 -39 17 -87
-2 -32 -12 -73 -21 -92 -14 -29 -15 -36 -3 -45 85 -67 136 -113 136 -124 0 -7
-16 -20 -35 -29 -39 -19 -32 -22 -127 65 l-36 34 -46 -31 c-62 -43 -117 -61
-186 -61 -139 0 -220 69 -220 188 0 59 36 116 97 152 21 13 39 24 41 26 2 1
-12 23 -31 48 -81 105 -71 205 28 266 59 37 171 45 243 19z m-5426 -14 c-2
-14 -13 -26 -28 -29 -13 -4 -28 -15 -33 -25 -6 -10 -13 -135 -17 -279 -8 -292
-8 -292 56 -292 34 0 37 -2 32 -25 l-4 -25 -130 0 c-127 0 -129 0 -126 22 2
14 13 24 33 30 54 14 55 20 55 299 0 142 -3 264 -6 273 -4 10 -18 16 -40 16
-23 0 -34 5 -34 14 0 38 8 41 129 42 l118 2 -5 -23z m332 6 c-1 -6 -2 -17 -2
-24 -1 -6 -15 -18 -31 -25 -16 -7 -84 -69 -150 -138 l-121 -124 116 -149 c111
-144 152 -181 198 -181 9 0 16 -4 16 -8 0 -45 -104 -62 -156 -25 -31 22 -246
311 -252 339 -2 9 41 61 101 122 139 142 145 156 80 176 -15 5 -23 15 -23 31
0 23 0 23 113 20 74 -2 112 -7 111 -14z m3336 -152 l0 -39 80 0 c44 0 80 -3
80 -7 0 -5 -3 -18 -6 -30 -6 -21 -12 -23 -85 -23 l-78 0 -3 -134 c-3 -144 2
-200 21 -219 13 -13 86 -16 119 -4 41 15 26 -26 -22 -55 -70 -45 -152 -35
-181 21 -12 24 -15 66 -15 200 0 180 -5 201 -51 201 -25 0 -24 17 4 41 66 56
123 97 129 92 5 -2 8 -22 8 -44z m-3114 -61 c-3 -18 -9 -105 -12 -193 -6 -151
-5 -161 14 -185 29 -35 92 -34 150 3 l43 28 -3 152 -3 152 -25 3 c-45 5 -52
10 -41 30 7 13 31 22 86 31 42 7 79 11 81 8 2 -2 0 -46 -6 -98 -12 -116 -13
-299 -1 -318 8 -12 48 -13 90 0 27 8 21 -17 -13 -54 -51 -56 -120 -50 -146 13
-7 16 -14 30 -16 30 -2 0 -31 -18 -65 -40 -69 -44 -118 -51 -169 -25 -50 26
-55 46 -60 240 l-5 180 -27 3 c-20 2 -28 9 -28 22 0 13 9 22 28 26 15 3 41 10
57 14 17 5 41 9 54 9 21 1 23 -2 17 -31z m1349 -10 c38 -41 53 -106 36 -150
l-11 -28 -150 0 -150 0 0 -42 c0 -54 29 -118 65 -146 40 -32 87 -37 163 -18
51 12 67 13 73 4 11 -18 3 -26 -61 -58 -81 -41 -146 -41 -215 -1 -164 94 -141
367 40 465 22 12 50 15 103 13 71 -2 75 -4 107 -39z m288 -15 l-5 -58 34 37
c42 47 95 78 132 78 l28 0 -7 -77 c-8 -90 -9 -93 -36 -93 -14 0 -19 7 -19 28
0 15 -5 33 -11 39 -17 17 -64 -3 -94 -39 -25 -30 -25 -33 -23 -167 l3 -136 46
-3 c43 -3 46 -5 41 -27 -4 -25 -5 -25 -118 -25 -76 0 -114 4 -114 11 0 6 14
24 30 39 l30 28 0 164 c0 174 -4 188 -48 188 -18 0 -23 5 -20 22 2 17 14 25
53 34 28 6 62 12 77 13 26 1 27 1 21 -56z m419 22 c-2 -19 -2 -35 1 -35 2 0
31 16 63 35 118 71 231 27 237 -92 1 -15 -2 -85 -6 -155 -10 -155 -7 -168 39
-168 33 0 42 -12 26 -36 -4 -6 -53 -14 -109 -17 -97 -6 -103 -5 -103 13 0 11
12 25 27 32 37 18 45 58 41 211 -3 127 -3 129 -31 153 -35 30 -68 30 -134 0
l-51 -24 -7 -74 c-3 -40 -5 -113 -3 -163 l3 -90 38 -3 c34 -3 37 -6 31 -25 -3
-12 -7 -23 -8 -23 0 -1 -47 -4 -103 -6 -100 -4 -103 -3 -103 18 0 15 8 24 25
28 34 9 36 25 33 210 -3 166 -3 165 -50 180 -10 3 -15 12 -11 24 5 19 64 37
133 41 24 1 26 -2 22 -34z m793 -7 c38 -41 53 -106 36 -150 l-11 -28 -150 0
-150 0 0 -42 c0 -54 29 -118 65 -146 40 -32 87 -37 163 -18 51 12 67 13 73 4
11 -18 3 -26 -61 -58 -93 -47 -186 -38 -252 23 -101 94 -96 288 10 389 61 58
88 69 170 65 71 -2 75 -4 107 -39z m823 22 c42 -26 64 -77 60 -143 l-3 -52
-159 -3 -159 -3 7 -52 c11 -78 46 -132 102 -153 48 -18 46 -18 182 13 17 4 22
1 22 -15 0 -31 -108 -82 -174 -82 -98 1 -180 63 -206 156 -17 59 -8 159 19
212 26 51 83 110 125 128 48 21 145 18 184 -6z m476 10 c3 -3 0 -36 -6 -73 -9
-55 -14 -67 -29 -67 -14 0 -19 7 -19 30 0 43 -31 70 -81 70 -95 0 -126 -69
-55 -120 11 -8 54 -34 94 -58 86 -50 115 -90 109 -144 -7 -51 -33 -84 -95
-114 -47 -24 -61 -26 -133 -22 -44 3 -85 10 -91 16 -17 17 2 156 23 160 12 2
18 -8 22 -40 8 -58 43 -88 101 -88 52 0 96 30 96 65 0 28 -39 63 -121 106 -33
18 -74 48 -90 67 -28 31 -31 40 -27 84 6 54 30 87 88 119 28 15 52 19 122 17
47 -2 89 -5 92 -8z m-5586 -1252 c-5 -35 -10 -202 -11 -373 l-2 -310 33 -3
c26 -3 32 -7 32 -28 0 -23 -3 -24 -59 -24 -32 0 -79 -3 -105 -6 -41 -6 -46 -5
-46 13 0 10 14 29 30 41 l30 23 0 322 c0 341 -1 347 -46 347 -16 0 -21 5 -17
18 3 13 24 21 81 33 42 8 80 14 83 12 3 -1 2 -31 -3 -65z m1681 -13 c-11 -100
-23 -596 -15 -629 6 -25 10 -28 44 -24 20 3 43 7 51 9 28 8 21 -20 -14 -55
-54 -54 -119 -48 -145 13 l-12 29 -61 -39 c-66 -41 -93 -46 -148 -27 -50 17
-83 45 -110 91 -34 59 -34 192 -2 253 56 105 134 154 245 154 l68 0 0 108 c0
111 -7 132 -42 132 -11 0 -18 7 -18 18 0 14 16 20 78 32 42 9 80 13 83 10 4
-3 3 -36 -2 -75z m5107 28 c-13 -113 -26 -651 -16 -678 7 -19 17 -25 40 -25
25 0 30 -4 30 -25 0 -24 -2 -25 -64 -25 -35 0 -84 -3 -110 -6 -43 -6 -46 -5
-39 12 4 10 19 31 35 46 l28 26 0 319 c0 338 -1 343 -48 343 -17 0 -23 5 -20
17 2 12 25 21 83 33 44 10 82 18 84 19 2 0 1 -25 -3 -56z m263 -28 c-11 -97
-24 -615 -15 -648 5 -23 12 -27 42 -27 32 0 35 -2 28 -22 -3 -13 -7 -24 -8
-24 0 -1 -47 -4 -103 -6 -93 -3 -103 -2 -103 14 0 9 10 23 23 29 12 7 25 17
29 23 4 6 8 155 8 332 0 333 -1 344 -42 344 -11 0 -18 7 -18 18 0 14 16 20 78
32 42 9 80 13 83 10 4 -3 3 -36 -2 -75z m-3427 8 c10 -9 18 -25 18 -35 0 -24
-43 -68 -66 -68 -25 0 -54 29 -54 54 0 56 62 86 102 49z m3970 0 c10 -9 18
-25 18 -35 0 -24 -43 -68 -66 -68 -25 0 -54 29 -54 54 0 56 62 86 102 49z
m-7916 -39 c66 -9 66 -9 53 -112 -12 -89 -13 -92 -38 -92 -24 0 -26 4 -27 45
-2 54 -22 81 -73 95 -89 24 -174 6 -237 -52 -59 -55 -79 -110 -79 -223 0 -193
89 -308 240 -309 85 -1 122 22 160 101 27 56 57 85 72 69 7 -7 -18 -168 -29
-183 -18 -23 -145 -46 -241 -41 -78 3 -100 8 -145 33 -64 34 -96 71 -131 145
-22 48 -26 68 -26 155 0 87 3 107 27 157 52 113 160 198 275 218 45 8 107 6
199 -6z m2509 -245 c91 -134 174 -255 185 -269 l20 -25 0 227 c0 124 -3 233
-6 242 -4 10 -18 16 -40 16 -26 0 -34 4 -34 18 0 32 15 37 118 39 100 1 102 1
102 -22 0 -16 -7 -25 -25 -29 -50 -13 -53 -28 -61 -363 -6 -266 -9 -313 -22
-318 -8 -3 -18 -2 -22 2 -4 4 -71 102 -148 218 -77 116 -165 245 -195 289
l-55 78 -7 -43 c-3 -24 -5 -136 -3 -249 l3 -205 43 -3 c34 -3 42 -7 42 -23 0
-25 -6 -27 -126 -32 l-101 -4 5 24 c3 14 15 28 28 34 14 5 28 19 33 31 11 30
24 520 14 534 -12 17 -49 34 -73 34 -16 0 -20 4 -16 16 3 9 6 19 6 23 0 4 38
7 85 6 l86 -2 164 -244z m3305 206 c0 -22 3 -64 6 -92 7 -52 6 -53 -19 -53
-26 0 -29 5 -42 68 -8 41 -35 58 -106 67 -53 6 -57 5 -62 -17 -3 -13 -9 -140
-13 -283 -8 -298 -9 -295 72 -295 40 0 44 -2 44 -25 l0 -25 -155 0 c-145 0
-155 1 -155 19 0 20 18 31 51 31 10 0 28 9 39 20 19 19 20 33 20 301 l0 282
-62 -7 c-77 -9 -104 -25 -113 -68 -12 -62 -16 -68 -40 -68 -24 0 -24 1 -19 83
3 45 7 87 9 92 1 6 101 10 274 10 l271 0 0 -40z m-2240 -126 l0 -39 80 0 c44
0 80 -3 80 -7 0 -5 -3 -18 -6 -30 -6 -21 -12 -23 -85 -23 l-78 0 -3 -134 c-3
-144 2 -200 21 -219 13 -13 86 -16 119 -4 41 15 26 -26 -22 -55 -70 -45 -152
-35 -181 21 -12 24 -15 66 -15 200 0 181 -5 201 -51 201 -13 0 -19 6 -17 15 4
18 140 124 151 118 4 -2 7 -22 7 -44z m4640 0 l0 -39 81 0 c70 0 80 -2 75 -16
-3 -9 -6 -22 -6 -30 0 -11 -17 -14 -79 -14 l-79 0 -7 -116 c-9 -134 -2 -211
20 -233 15 -15 67 -20 115 -11 39 8 31 -20 -15 -52 -58 -40 -125 -39 -166 1
l-29 29 0 176 c0 163 -2 178 -20 196 -11 11 -27 20 -35 20 -26 0 -17 39 13 54
15 8 47 30 72 49 24 20 48 33 52 31 4 -3 8 -23 8 -45z m-7432 -48 c75 -38 114
-114 113 -221 0 -90 -29 -157 -88 -210 -57 -49 -99 -63 -179 -58 -52 3 -70 9
-101 34 -138 112 -116 355 41 444 63 37 154 41 214 11z m348 -3 c-11 -42 -28
-272 -23 -321 8 -93 77 -118 170 -64 l47 28 0 135 c0 74 -5 144 -10 155 -7 12
-21 19 -41 19 -26 0 -30 3 -27 22 2 19 13 24 68 34 95 18 114 18 105 -3 -13
-35 -26 -372 -15 -393 12 -23 68 -28 88 -8 9 9 15 9 23 1 8 -8 1 -22 -26 -52
-30 -33 -44 -41 -72 -41 -36 0 -83 36 -83 65 0 22 -7 20 -77 -26 -58 -38 -67
-41 -115 -37 -42 4 -57 11 -80 37 l-28 31 0 169 c0 93 -3 176 -6 185 -4 10
-18 16 -35 16 -30 0 -40 22 -16 37 15 10 103 30 136 32 20 1 22 -3 17 -21z
m2092 2 c58 -35 66 -74 52 -227 -7 -73 -9 -144 -6 -159 6 -23 11 -26 44 -22
20 3 43 7 51 9 28 8 21 -20 -14 -55 -55 -55 -120 -47 -145 18 l-10 27 -53 -41
c-59 -44 -82 -48 -134 -23 -44 20 -73 66 -73 114 0 52 30 85 93 102 28 8 78
22 110 31 l57 17 0 45 c0 107 -70 143 -175 89 -27 -13 -50 -23 -51 -22 -1 1
-5 12 -8 25 -7 20 0 26 66 57 86 41 145 46 196 15z m734 -52 c-4 -40 -7 -140
-7 -223 l0 -150 33 -3 c26 -3 32 -7 32 -28 0 -23 -3 -24 -59 -24 -32 0 -79 -3
-105 -6 -42 -6 -46 -5 -46 14 0 12 10 27 23 33 12 7 25 17 29 23 4 6 8 88 8
183 0 163 -1 173 -20 183 -11 6 -25 8 -31 4 -7 -4 -9 2 -7 17 2 19 12 25 58
35 104 22 100 24 92 -58z m318 54 c0 -12 -11 -21 -32 -27 -27 -8 -33 -15 -30
-35 5 -49 86 -320 93 -313 13 13 119 286 121 313 3 23 -1 25 -39 28 -35 3 -43
7 -43 23 0 18 8 19 105 19 95 0 104 -2 98 -17 -4 -10 -15 -24 -25 -31 -23 -17
-48 -68 -134 -274 -61 -150 -72 -169 -98 -178 -16 -5 -31 -9 -32 -7 -2 1 -33
97 -69 212 -67 209 -90 255 -127 255 -10 0 -18 3 -18 8 1 24 22 31 100 35 47
1 95 4 108 5 15 1 22 -3 22 -16z m648 -2 c42 -26 64 -77 60 -143 l-3 -52 -159
-3 -159 -3 7 -47 c3 -26 16 -67 29 -92 18 -36 33 -49 70 -64 50 -21 45 -21
185 11 17 4 22 1 22 -15 0 -31 -108 -82 -174 -82 -98 1 -180 63 -206 156 -17
59 -8 159 19 212 26 51 83 110 125 128 48 21 145 18 184 -6z m1329 -16 c60
-47 88 -114 87 -204 -1 -87 -18 -132 -72 -192 -48 -54 -102 -78 -175 -78 -73
0 -127 26 -167 81 -93 129 -39 342 105 411 30 14 57 18 112 16 62 -3 76 -7
110 -34z m540 0 c60 -47 88 -114 87 -204 -1 -87 -18 -132 -72 -192 -48 -54
-102 -78 -175 -78 -73 0 -127 26 -167 81 -93 129 -39 342 105 411 30 14 57 18
112 16 62 -3 76 -7 110 -34z m906 30 c12 -13 -7 -34 -56 -63 -29 -16 -81 -58
-116 -94 l-64 -65 79 -99 c56 -70 91 -104 121 -118 55 -26 56 -49 1 -63 -69
-18 -93 -1 -191 134 -48 66 -87 126 -87 135 0 9 34 48 75 87 41 39 75 77 75
85 0 8 -14 17 -31 21 -18 3 -29 11 -27 18 3 9 35 15 94 19 49 3 96 6 105 7 9
1 18 -1 22 -4z m229 -66 c-4 -40 -7 -140 -7 -223 l0 -150 33 -3 c26 -3 32 -7
32 -28 0 -23 -3 -24 -59 -24 -32 0 -79 -3 -105 -6 -42 -6 -46 -5 -46 14 0 12
10 27 23 33 12 7 25 17 29 23 4 6 8 88 8 183 0 163 -1 173 -20 183 -11 6 -25
8 -31 4 -7 -4 -9 2 -7 17 2 19 12 25 58 35 104 22 100 24 92 -58z"/>
<path d="M10366 12253 c7 -4 14 -17 17 -28 5 -16 5 -15 4 4 -1 14 -9 26 -17
28 -10 3 -11 2 -4 -4z"/>
<path d="M4383 8410 c0 -25 2 -35 4 -22 2 12 2 32 0 45 -2 12 -4 2 -4 -23z"/>
<path d="M10270 7379 c0 -5 5 -7 10 -4 6 3 10 8 10 11 0 2 -4 4 -10 4 -5 0
-10 -5 -10 -11z"/>
<path d="M10126 7286 c7 -17 44 -22 44 -6 0 6 -4 10 -9 10 -5 0 -17 3 -25 6
-12 5 -15 2 -10 -10z"/>
<path d="M10161 7234 c0 -11 3 -14 6 -6 3 7 2 16 -1 19 -3 4 -6 -2 -5 -13z"/>
<path d="M5786 4406 c-186 -78 -269 -316 -177 -512 36 -78 91 -133 167 -169
50 -24 72 -28 144 -28 71 0 94 4 140 26 30 14 72 42 92 61 187 176 143 506
-81 614 -82 39 -202 42 -285 8z"/>
<path d="M8282 4299 l3 -594 125 -3 c224 -6 364 30 482 123 108 84 174 201
204 362 55 297 -95 576 -366 679 -35 13 -90 18 -248 21 l-202 5 2 -593z"/>
<path d="M7175 4431 c-49 -13 -110 -48 -148 -85 -38 -37 -83 -115 -88 -156
l-4 -25 324 -3 323 -2 -7 37 c-16 87 -82 175 -160 215 -43 23 -185 34 -240 19z"/>
<path d="M10003 4409 c-75 -29 -146 -98 -185 -177 -31 -63 -33 -74 -33 -172 0
-95 3 -111 28 -162 36 -74 102 -139 175 -174 49 -24 69 -28 142 -27 104 0 173
28 243 100 83 84 118 201 99 328 -20 123 -86 219 -190 271 -76 39 -200 45
-279 13z"/>
<path d="M5999 2597 c-26 -14 -46 -33 -50 -48 -12 -43 -10 -287 2 -295 7 -4
41 -9 78 -11 57 -4 70 -2 100 19 50 34 71 81 71 158 0 80 -29 144 -79 177 -43
29 -67 29 -122 0z"/>
<path d="M10013 2500 c-41 -24 -67 -82 -60 -132 10 -76 74 -118 179 -118 58 0
148 30 148 49 0 3 -53 54 -119 113 l-118 107 -30 -19z"/>
<path d="M6531 2623 c-37 -19 -65 -53 -76 -91 l-7 -23 99 7 c123 7 123 7 123
43 0 65 -73 99 -139 64z"/>
<path d="M8031 2623 c-37 -19 -65 -53 -76 -91 l-7 -23 99 7 c123 7 123 7 123
43 0 65 -73 99 -139 64z"/>
<path d="M8873 2624 c-34 -17 -73 -69 -73 -98 0 -15 11 -16 98 -10 120 7 122
8 122 38 0 63 -84 102 -147 70z"/>
<path d="M5350 1112 c-101 -50 -117 -222 -30 -316 34 -36 44 -41 82 -40 26 0
57 9 81 23 l37 23 0 153 0 153 -31 11 c-46 16 -99 13 -139 -7z"/>
<path d="M4191 1100 c-99 -100 -45 -346 80 -366 93 -15 149 56 149 187 -1 130
-57 209 -150 209 -41 0 -53 -5 -79 -30z"/>
<path d="M6727 892 c-61 -18 -81 -29 -89 -48 -10 -20 -8 -29 9 -52 23 -31 62
-39 103 -22 48 20 61 42 58 97 l-3 49 -78 -24z"/>
<path d="M8361 1122 c-33 -18 -71 -72 -71 -100 0 -10 22 -11 98 -6 120 7 122
8 122 38 0 65 -85 104 -149 68z"/>
<path d="M9646 1109 c-44 -35 -60 -76 -60 -159 -1 -61 4 -85 24 -125 43 -86
119 -117 186 -76 47 28 68 83 68 171 -1 127 -61 210 -152 210 -25 0 -49 -8
-66 -21z"/>
<path d="M10186 1109 c-44 -35 -60 -76 -60 -159 -1 -61 4 -85 24 -125 43 -86
119 -117 186 -76 47 28 68 83 68 171 -1 127 -61 210 -152 210 -25 0 -49 -8
-66 -21z"/>
</g>
</svg>
